<svg xmlns="http://www.w3.org/2000/svg" xmlns:xlink="http://www.w3.org/1999/xlink" width="54" height="54" viewBox="0 0 54 54">
    <defs>
        <path id="a" d="M.294.6h7.471v7.472H.295z"/>
        <path id="c" d="M.204.413h9.824v9.824H.204z"/>
    </defs>
    <g fill="none" fill-rule="evenodd">
        <path fill="#2D6AE4" d="M30.578 51.7h-9.05v-3.05h3.743v-1.7h-2.776l3.558-4.262 4.525 5.42V51.7zm18.94-16.35L2.224 45.713l.364 1.66 21.22-4.65-3.528 4.226h-.385v.53a.83.83 0 0 0-.068.32v4.75c0 .469.381.85.85.85h10.75a.85.85 0 0 0 .85-.85V47.8a.85.85 0 0 0-.198-.545l-4.477-5.363 22.278-4.882-.364-1.66zM10.146 23.934c4.657 0 8.446 3.79 8.446 8.446 0 4.657-3.789 8.446-8.445 8.446-4.653-.005-8.442-3.794-8.447-8.446 0-4.657 3.789-8.446 8.446-8.446m0 18.592c5.595 0 10.146-4.55 10.146-10.146 0-5.594-4.551-10.146-10.146-10.146C4.552 22.234 0 26.786 0 32.381c.006 5.588 4.557 10.14 10.146 10.145"/>
        <path fill="#2D6AE4" d="M9.28 36.666v.913h1.733v-.911a2.74 2.74 0 0 0 2.599-2.512 2.763 2.763 0 0 0-2.577-2.517l-1.524-.225c-.687-.102-1.098-.49-1.098-.804 0-.39.607-.826 1.42-.826h.627c.813 0 1.419.433 1.419.826v.233h1.733v-.233a2.74 2.74 0 0 0-2.6-2.512v-.916H9.28v.91a2.742 2.742 0 0 0-2.6 2.513 2.766 2.766 0 0 0 2.578 2.517l1.523.226c.687.1 1.098.488 1.098.802 0 .39-.606.827-1.42.827h-.626c-.813.003-1.42-.431-1.42-.824v-.233H6.68v.233a2.741 2.741 0 0 0 2.6 2.513M40.17 33.77c-4.653-.004-8.442-3.793-8.447-8.445 0-4.657 3.79-8.446 8.446-8.446 4.657 0 8.446 3.789 8.446 8.446s-3.789 8.446-8.445 8.446m0-18.592c-5.595 0-10.147 4.552-10.147 10.147.006 5.588 4.557 10.139 10.146 10.145 5.595 0 10.147-4.552 10.147-10.146 0-5.594-4.552-10.146-10.147-10.146"/>
        <path fill="#2D6AE4" d="M41.469 24.459h-2.6v-1.733h2.6a.867.867 0 1 1 0 1.733m0 3.465h-2.6V26.19h2.6a.867.867 0 0 1 0 1.733m1.764-6.237a2.593 2.593 0 0 0-.897-.535v-1.026h-1.733v.867H38.87v-.867h-1.733v.867h-.867v1.733h.867v5.199h-.867v1.732h.867v.867h1.733v-.867h1.733v.867h1.733v-1.026a2.575 2.575 0 0 0 1.057-4.173 2.575 2.575 0 0 0-.16-3.638"/>
        <g transform="translate(34 -.6)">
            <mask id="b" fill="#fff">
                <use xlink:href="#a"/>
            </mask>
            <path fill="#2D6AE4" d="M4.03 2.26a2.076 2.076 0 1 1 0 4.152 2.076 2.076 0 0 1 0-4.151m0 5.81a3.743 3.743 0 0 0 3.735-3.735A3.736 3.736 0 1 0 4.03 8.072" mask="url(#b)"/>
        </g>
        <g transform="translate(43 4.4)">
            <mask id="d" fill="#fff">
                <use xlink:href="#c"/>
            </mask>
            <path fill="#2D6AE4" d="M5.116 8.6a3.275 3.275 0 1 1 0-6.55 3.275 3.275 0 0 1 0 6.55m0-8.187a4.912 4.912 0 1 0 0 9.824 4.912 4.912 0 0 0 0-9.824" mask="url(#d)"/>
        </g>
        <path fill="#2D6AE4" d="M47.294 11.37h1.645V8.08h-1.645z"/>
    </g>
</svg>
