<svg xmlns="http://www.w3.org/2000/svg" xmlns:xlink="http://www.w3.org/1999/xlink" width="46" height="56" viewBox="0 0 46 56">
    <defs>
        <path id="a" d="M0 57h45.478V.891H0z"/>
    </defs>
    <g fill="none" fill-rule="evenodd">
        <path fill="#2D6AE4" d="M12.916 42.365l1.298 1.298 18.348-18.349-1.297-1.298z"/>
        <g transform="translate(0 -.89)">
            <path fill="#2D6AE4" d="M17.694 27.388a2.294 2.294 0 1 1 0 4.588 2.294 2.294 0 0 1 0-4.588m0 6.423a4.13 4.13 0 1 0 0-8.259 4.13 4.13 0 0 0 0 8.26M27.788 42.07a2.294 2.294 0 1 1 0-4.589 2.294 2.294 0 0 1 0 4.588m0-6.423a4.13 4.13 0 0 0 0 8.258 4.13 4.13 0 0 0 0-8.258"/>
            <mask id="b" fill="#fff">
                <use xlink:href="#a"/>
            </mask>
            <path fill="#2D6AE4" d="M27.256 17.99h1.789V8.835h-1.789zM27.256 7.046h1.789V5.257h-1.789zM38.095 17.991h1.789v-3.578h-1.789zM38.095 10.835h1.789V4.468h-1.789zM38.095 2.68h1.789V.891h-1.789zM32.623 11.729h1.789V9.94h-1.789zM32.623 17.99h1.789v-4.472h-1.789zM5.783 9.881h1.789V5.514H5.783zM5.783 13.458h1.789v-1.789H5.783zM5.783 17.931h1.789v-1.789H5.783zM22.574 55.072L3.307 39.93h3.067a.85.85 0 0 0 .85-.85v-17.4h31.03v17.4c0 .47.382.85.85.85h3.037L22.574 55.072zm22.859-16.267a.85.85 0 0 0-.804-.575h-4.674v-17.4a.85.85 0 0 0-.85-.85H6.374a.85.85 0 0 0-.85.85v17.4H.85a.85.85 0 0 0-.525 1.52l21.72 17.068a.85.85 0 0 0 1.045.004l22.059-17.069a.851.851 0 0 0 .284-.948z" mask="url(#b)"/>
        </g>
    </g>
</svg>
