<svg xmlns="http://www.w3.org/2000/svg" xmlns:xlink="http://www.w3.org/1999/xlink" width="45" height="51" viewBox="0 0 45 51">
    <defs>
        <path id="a" d="M0 .117h33.604V34H0z"/>
        <path id="c" d="M.216.433h35.467v40.891H.216z"/>
        <path id="e" d="M0 51.567h44.683V1H0z"/>
    </defs>
    <g fill="none" fill-rule="evenodd" transform="translate(0 -1)">
        <g transform="translate(0 17.567)">
            <mask id="b" fill="#fff">
                <use xlink:href="#a"/>
            </mask>
            <path fill="#2D6AE4" d="M32.077 28.879a19.404 19.404 0 0 1-10.62 3.146c-10.741 0-19.482-8.74-19.482-19.483 0-3.901 1.149-7.665 3.322-10.885A.988.988 0 0 0 3.66.552 21.349 21.349 0 0 0 0 12.542c0 5.732 2.232 11.12 6.285 15.173A21.316 21.316 0 0 0 21.458 34c4.172 0 8.217-1.198 11.698-3.466a.988.988 0 0 0-1.079-1.655" mask="url(#b)"/>
        </g>
        <g transform="translate(9 .567)">
            <mask id="d" fill="#fff">
                <use xlink:href="#c"/>
            </mask>
            <path fill="#2D6AE4" d="M27.943 10.006l-.467-.467.946-.947a1.032 1.032 0 0 1 1.46 0l3.525 3.526a1.033 1.033 0 0 1 0 1.46l-.946.946-.466-.466-4.052-4.052zm.957 5.748c-.4-.477-.823-.94-1.269-1.386a22.068 22.068 0 0 0-1.385-1.269l.998-.998 2.654 2.654-.998 1zM9.594 4.778H7.421v-2.37h10.074v2.37H9.594zm2.864 3.306c-.629 0-1.255.027-1.876.081v-1.41h3.753v1.411a21.645 21.645 0 0 0-1.877-.082zm19.304 8.535a.985.985 0 0 0 1.397 0l1.645-1.645a3.012 3.012 0 0 0 0-4.253l-3.526-3.526a2.99 2.99 0 0 0-2.126-.88 2.99 2.99 0 0 0-2.126.88L25.38 8.84a.991.991 0 0 0 0 1.397l.468.467-1.184 1.184a21.207 21.207 0 0 0-8.354-3.46V6.753h2.173a.988.988 0 0 0 .988-.988V1.421a.988.988 0 0 0-.988-.988H6.433a.987.987 0 0 0-.987.988v4.345c0 .546.442.988.987.988h2.173V8.43A21.334 21.334 0 0 0 .66 11.615a.988.988 0 0 0 1.087 1.65 19.402 19.402 0 0 1 10.711-3.206c10.743 0 19.483 8.74 19.483 19.483a19.44 19.44 0 0 1-2.925 10.273.988.988 0 0 0 1.677 1.043 21.404 21.404 0 0 0 3.224-11.316c0-4.426-1.332-8.647-3.805-12.206l1.184-1.184.466.467z" mask="url(#d)"/>
        </g>
        <path fill="#2D6AE4" d="M20.677 28.969l.134-.081a1.385 1.385 0 0 1 2.03 1.221c0 .234-.06.453-.162.646l-.08.135c-.25.363-.669.602-1.14.602a1.383 1.383 0 1 1-.781-2.523zm4.868-2.947l-1.323 2.184a3.376 3.376 0 0 0-.86-.862l2.183-1.322zm-4.087 7.445a3.354 3.354 0 0 0 2.726-1.402c.074-.09.141-.21.197-.306l4.935-8.151a.99.99 0 0 0-1.357-1.357l-8.153 4.936a3.358 3.358 0 0 0-1.706 2.922 3.361 3.361 0 0 0 3.358 3.358z"/>
        <path fill="#2D6AE4" d="M21.458 14.975c8.345 0 15.134 6.79 15.134 15.134 0 8.345-6.789 15.134-15.134 15.134S6.324 38.453 6.324 30.109c0-8.344 6.79-15.134 15.134-15.134m0 32.244c9.434 0 17.11-7.676 17.11-17.11s-7.676-17.11-17.11-17.11S4.35 20.676 4.35 30.11s7.675 17.11 17.11 17.11"/>
        <mask id="f" fill="#fff">
            <use xlink:href="#e"/>
        </mask>
        <path fill="#2D6AE4" d="M20.47 20.329h1.976v-4.148H20.47zM20.47 44.037h1.976v-4.148H20.47zM31.238 31.097h4.148v-1.976h-4.148zM7.53 31.097h4.148v-1.976H7.53zM32.005 20.96l-1.397-1.398-1.396 1.397 1.396 1.396zM10.911 39.259l1.397 1.397 1.396-1.397-1.396-1.396zM13.705 20.96l-1.396-1.398-1.397 1.397 1.397 1.396zM29.212 39.259l1.396 1.397 1.397-1.397-1.397-1.396zM8.392 15.647L6.996 14.25 5.6 15.647l1.397 1.396zM34.526 44.574l1.397 1.396 1.396-1.396-1.396-1.397z" mask="url(#f)"/>
    </g>
</svg>
