<svg xmlns="http://www.w3.org/2000/svg" width="25" height="15" viewBox="0 0 25 15">
    <g fill="#FFF" fill-rule="evenodd">
        <path fill-rule="nonzero" d="M24.573 6.372c-.27-.322-.555-.621-.828-.895-1.587-1.584-3.29-2.908-5.173-3.895C17.223.876 15.9.411 14.62.18 13.849.039 13.14 0 12.516 0c-.651 0-1.374.035-2.145.179C9.078.42 7.753.887 6.42 1.582c-1.83.956-3.546 2.269-5.173 3.895-.314.314-.586.603-.828.895-.559.672-.558 1.556 0 2.229.664.8 1.55 1.634 2.661 2.532 2.365 1.909 4.682 3.121 6.952 3.62.799.174 1.629.247 2.484.247.828 0 1.645-.073 2.444-.247 2.296-.502 4.619-1.705 6.979-3.62 1.183-.96 2.046-1.817 2.634-2.532.566-.69.573-1.546 0-2.23zm-.628 1.247c-.626.81-1.49 1.647-2.558 2.546-2.241 1.887-4.444 3.113-6.634 3.595-.807.176-1.548.24-2.23.24-.74 0-1.466-.067-2.245-.24-2.162-.485-4.384-1.681-6.663-3.595-1.074-.902-1.918-1.752-2.529-2.546-.099-.075-.099-.164 0-.27.071-.104.196-.258.37-.449.18-.198.312-.344.383-.434C3.487 4.76 5.171 3.471 6.87 2.573c1.356-.719 2.586-1.194 3.693-1.393a10.664 10.664 0 0 1 3.907 0c1.123.206 2.355.68 3.694 1.393 1.73.92 3.395 2.2 5 3.893.37.39.63.685.782.884.076.1.07.194 0 .27z"/>
        <path d="M12.584 6.758l2.793-2.793.778.778-2.793 2.793 2.793 2.793-.778.778-2.793-2.794-2.793 2.794-.778-.778 2.794-2.793-2.794-2.793.778-.778 2.793 2.793z"/>
    </g>
</svg>
